<?xml version="1.0" encoding="UTF-8"?>
<svg id="Layer_2" data-name="Layer 2" xmlns="http://www.w3.org/2000/svg" viewBox="0 0 462.15 106.66">
  <defs>
    <style>
      .cls-1 {
        fill: #f7a324;
      }

      .cls-1, .cls-2 {
        stroke-width: 0px;
      }

      .cls-3 {
        font-family: SEINBLUE, 'SEIN BLUE';
        font-size: 50.62px;
        letter-spacing: .05em;
      }

      .cls-3, .cls-2 {
        fill: #084b80;
      }
    </style>
  </defs>
  <g id="Layer_1-2" data-name="Layer 1">
    <g>
      <path class="cls-1" d="M64.07,20.59c0-11.37,9.22-20.59,20.59-20.59s20.59,9.22,20.59,20.59-9.22,20.59-20.59,20.59-20.59-9.22-20.59-20.59Z"/>
      <g>
        <text class="cls-3" transform="translate(101.86 83.57)"><tspan x="0" y="0">AMBILLION</tspan></text>
        <path class="cls-2" d="M87.05,50.57v14.82c0,6.57,0,11.21-.31,14.84-.3,3.57-.86,5.75-1.75,7.46-1.73,3.33-4.44,6.04-7.77,7.77-1.71.89-3.88,1.45-7.46,1.75-3.63.3-8.27.31-14.84.31h-13.67c-6.57,0-11.21,0-14.84-.31-3.57-.3-5.75-.86-7.46-1.75-3.33-1.73-6.04-4.44-7.77-7.77-.89-1.71-1.45-3.88-1.75-7.46-.3-3.63-.31-8.27-.31-14.84v-13.67c0-6.57,0-11.21.31-14.84.3-3.57.86-5.75,1.75-7.46,1.73-3.33,4.44-6.04,7.77-7.77,1.71-.89,3.88-1.45,7.46-1.75,3.63-.3,8.27-.31,14.84-.31h14.82c.13-3.21.77-6.29,1.84-9.15h-16.87c-6.32,0-11.34,0-15.39.34-4.15.34-7.69,1.07-10.92,2.74-5,2.6-9.07,6.67-11.67,11.67-1.68,3.23-2.4,6.77-2.74,10.92-.34,4.05-.34,9.08-.34,15.39v14.08c0,6.32,0,11.34.34,15.39.34,4.15,1.07,7.69,2.74,10.92,2.6,5,6.67,9.07,11.67,11.67,3.23,1.68,6.77,2.4,10.92,2.74,4.05.34,9.08.34,15.39.34h14.08c6.32,0,11.34,0,15.39-.34,4.15-.35,7.69-1.07,10.92-2.74,5-2.6,9.07-6.67,11.67-11.67,1.68-3.23,2.4-6.77,2.74-10.92.34-4.05.34-9.08.34-15.39v-16.87c-2.87,1.07-5.94,1.71-9.15,1.84Z"/>
        <path class="cls-2" d="M68.29,20.53c.05-9.12,7.39-16.37,16.51-16.31,9.02.06,16.29,7.41,16.23,16.41-.05,9.06-7.41,16.38-16.43,16.34-9.04-.04-16.37-7.43-16.32-16.44ZM80.86,28.73c.86,0,1.45-.35,1.98-.88,3.72-3.72,7.44-7.44,11.16-11.16.16-.16.32-.33.45-.51.55-.79.63-1.64.18-2.49-.45-.85-1.19-1.26-2.16-1.25-.81,0-1.38.45-1.91.99-2.93,2.94-5.88,5.86-8.79,8.82-.51.52-.74.44-1.14-.09-.83-1.12-1.72-2.19-2.59-3.28-1.01-1.25-2.41-1.48-3.51-.59-1.07.87-1.19,2.27-.24,3.49,1.58,2.01,3.18,4.01,4.77,6.02.49.62,1.13.93,1.81.95Z"/>
        <path class="cls-2" d="M42.27,17.55c3.58,0,7.16.12,10.73-.04,2.43-.11,3.6,1.52,3.55,6.09-.09,8.33-.06,16.66,0,24.99.03,4.74-1.19,5.76-3.13,3.13-7.1-9.61-14-8.12-21.2-.1-3.41,3.8-3.9,2.86-3.92-4.47-.02-7.94.08-15.89-.03-23.83-.06-4.34.98-5.89,3.28-5.81,3.58.13,7.15.03,10.73.03Z"/>
      </g>
    </g>
  </g>
</svg>