<?xml version="1.0" encoding="UTF-8"?>
<svg id="Layer_1" data-name="Layer 1" xmlns="http://www.w3.org/2000/svg" width="500" height="250" viewBox="0 0 500 250">
  <defs>
    <style>
      .cls-1 {
        fill: #f7a324;
      }

      .cls-1, .cls-2 {
        stroke-width: 0px;
      }

      .cls-3 {
        font-family: SEINBLUE, 'SEIN BLUE';
        font-size: 50.6px;
        letter-spacing: 0em;
      }

      .cls-3, .cls-2 {
        fill: #084b80;
      }
    </style>
  </defs>
  <path class="cls-1" d="M83,92.3c0-11.4,9.2-20.6,20.6-20.6s20.6,9.2,20.6,20.6-9.2,20.6-20.6,20.6-20.6-9.2-20.6-20.6Z"/>
  <g>
    <text class="cls-3" transform="translate(120.8 155.2)"><tspan x="0" y="0">AMBILLION</tspan></text>
    <path class="cls-2" d="M106,122.2v14.8c0,6.6,0,11.2-.3,14.8-.3,3.6-.9,5.8-1.7,7.5-1.7,3.3-4.4,6-7.8,7.8-1.7.9-3.9,1.4-7.5,1.7-3.6.3-8.3.3-14.8.3h-13.7c-6.6,0-11.2,0-14.8-.3-3.6-.3-5.8-.9-7.5-1.7-3.3-1.7-6-4.4-7.8-7.8-.9-1.7-1.4-3.9-1.7-7.5-.3-3.6-.3-8.3-.3-14.8v-13.7c0-6.6,0-11.2.3-14.8.3-3.6.9-5.8,1.7-7.5,1.7-3.3,4.4-6,7.8-7.8,1.7-.9,3.9-1.4,7.5-1.7,3.6-.3,8.3-.3,14.8-.3h14.8c.1-3.2.8-6.3,1.8-9.2h-16.9c-6.3,0-11.3,0-15.4.3-4.1.3-7.7,1.1-10.9,2.7-5,2.6-9.1,6.7-11.7,11.7-1.7,3.2-2.4,6.8-2.7,10.9-.3,4.1-.3,9.1-.3,15.4v14.1c0,6.3,0,11.3.3,15.4.3,4.1,1.1,7.7,2.7,10.9,2.6,5,6.7,9.1,11.7,11.7,3.2,1.7,6.8,2.4,10.9,2.7,4.1.3,9.1.3,15.4.3h14.1c6.3,0,11.3,0,15.4-.3,4.1-.3,7.7-1.1,10.9-2.7,5-2.6,9.1-6.7,11.7-11.7,1.7-3.2,2.4-6.8,2.7-10.9.3-4.1.3-9.1.3-15.4v-16.9c-2.9,1.1-5.9,1.7-9.2,1.8Z"/>
    <path class="cls-2" d="M87.2,92.2c0-9.1,7.4-16.4,16.5-16.3,9,0,16.3,7.4,16.2,16.4,0,9.1-7.4,16.4-16.4,16.3-9,0-16.4-7.4-16.3-16.4ZM99.8,100.4c.9,0,1.5-.4,2-.9,3.7-3.7,7.4-7.4,11.2-11.2.2-.2.3-.3.4-.5.6-.8.6-1.6.2-2.5-.4-.9-1.2-1.3-2.2-1.3-.8,0-1.4.4-1.9,1-2.9,2.9-5.9,5.9-8.8,8.8-.5.5-.7.4-1.1,0-.8-1.1-1.7-2.2-2.6-3.3-1-1.2-2.4-1.5-3.5-.6-1.1.9-1.2,2.3-.2,3.5,1.6,2,3.2,4,4.8,6,.5.6,1.1.9,1.8.9Z"/>
    <path class="cls-2" d="M61.2,89.2c3.6,0,7.2.1,10.7,0,2.4-.1,3.6,1.5,3.5,6.1,0,8.3,0,16.7,0,25,0,4.7-1.2,5.8-3.1,3.1-7.1-9.6-14-8.1-21.2,0-3.4,3.8-3.9,2.9-3.9-4.5,0-7.9,0-15.9,0-23.8,0-4.3,1-5.9,3.3-5.8,3.6.1,7.2,0,10.7,0Z"/>
  </g>
</svg>