<svg width="31" height="26" viewBox="0 0 31 26" fill="none" xmlns="http://www.w3.org/2000/svg">
<path fill-rule="evenodd" clip-rule="evenodd" d="M16.5823 3.07021C16.271 2.55757 15.5176 2.54408 15.1874 3.04523L2.87206 21.7333C2.51983 22.2678 2.91183 22.9719 3.56161 22.9719H5.20091C5.48199 22.9719 5.74352 22.8311 5.89399 22.5987L13.8537 10.3055C14.8314 8.79551 17.0894 8.81682 18.0372 10.345L23.5075 19.1651C23.8995 19.7971 23.6939 20.6205 23.0482 21.0042C22.4026 21.3879 21.5615 21.1866 21.1695 20.5546L15.9279 12.1033L8.20426 24.032C7.55221 25.0391 6.41893 25.6493 5.20091 25.6493H3.56161C0.745897 25.6493 -0.952744 22.5981 0.573572 20.282L12.8889 1.59389C14.32 -0.577764 17.5844 -0.519321 18.9335 1.70211L30.4953 20.7408C31.9043 23.061 30.1962 26 27.4388 26H19.7994C18.4038 26 17.1372 25.2008 16.5609 23.9565L14.7073 19.9542C14.3955 19.2808 14.7003 18.4874 15.3882 18.1822C16.0762 17.8769 16.8866 18.1753 17.1985 18.8487L19.0521 22.851C19.1851 23.1382 19.4774 23.3226 19.7994 23.3226H27.4388C28.0751 23.3226 28.4693 22.6444 28.1441 22.1089L16.5823 3.07021ZM16.1639 11.7388C16.1638 11.739 16.1641 11.7386 16.1639 11.7388V11.7388Z" fill="#fff"/>
</svg>
